<svg version="1.1" xmlns="http://www.w3.org/2000/svg" xmlns:xlink="http://www.w3.org/1999/xlink" width="36.08916" height="36.08916" viewBox="0,0,36.08916,36.08916"><g transform="translate(-221.95542,-161.95542)"><g data-paper-data="{&quot;isPaintingLayer&quot;:true}" fill-rule="nonzero" stroke-linecap="butt" stroke-linejoin="miter" stroke-miterlimit="10" stroke-dasharray="" stroke-dashoffset="0" style="mix-blend-mode: normal"><path d="M223.71628,180c0,-8.99326 7.29047,-16.28373 16.28373,-16.28373c8.99326,0 16.28373,7.29047 16.28373,16.28373c0,8.99326 -7.29047,16.28373 -16.28373,16.28373c-8.99326,0 -16.28373,-7.29047 -16.28373,-16.28373z" fill="#ffffff" stroke="none" stroke-width="0"/><path d="M222.33042,180c0,-9.75864 7.91093,-17.66957 17.66958,-17.66957c9.75864,0 17.66958,7.91093 17.66958,17.66957c0,9.75864 -7.91094,17.66958 -17.66958,17.66958c-9.75864,0 -17.66958,-7.91094 -17.66958,-17.66958z" fill="none" stroke="#ffffff" stroke-width="0.75"/><ellipse cx="487.27515" cy="359.65496" transform="scale(0.5,0.5)" rx="0" ry="0" fill="none" stroke="#ffffff" stroke-width="0.75"/></g></g></svg>